<svg width="16" height="16" viewBox="0 0 16 16" fill="none" xmlns="http://www.w3.org/2000/svg">
<path d="M8 1.33337C9.5029 1.33337 10.9442 1.9304 12.0069 2.9931C13.0696 4.05581 13.6667 5.49715 13.6667 7.00004C13.6667 11.3334 10 15 8 15C6 15 2.33334 11.3334 2.33334 7.00004C2.33334 5.49715 2.93036 4.05581 3.99306 2.9931C5.05577 1.9304 6.49711 1.33337 8 1.33337V1.33337ZM8 2.66671C6.85073 2.66671 5.74853 3.12325 4.93587 3.93591C4.12322 4.74857 3.66667 5.85077 3.66667 7.00004C3.66667 10.196 6.44334 13.6667 8 13.6667C9.55667 13.6667 12.3333 10.196 12.3333 7.00004C12.3333 5.85077 11.8768 4.74857 11.0641 3.93591C10.2515 3.12325 9.14927 2.66671 8 2.66671V2.66671ZM11.6667 7.33337C11.7733 7.33337 11.8793 7.33871 11.9833 7.35004C12.0306 7.79498 11.9777 8.24486 11.8286 8.66672C11.6794 9.08858 11.4378 9.47174 11.1214 9.78813C10.805 10.1045 10.4219 10.3461 10 10.4953C9.57816 10.6444 9.12828 10.6973 8.68334 10.65C8.63893 10.2317 8.683 9.80871 8.8127 9.40851C8.94239 9.00832 9.1548 8.63987 9.43614 8.3271C9.71747 8.01433 10.0614 7.76422 10.4457 7.59302C10.83 7.42183 11.246 7.33336 11.6667 7.33337V7.33337ZM4.33334 7.33337C4.75402 7.33336 5.17001 7.42183 5.55428 7.59302C5.93856 7.76422 6.28253 8.01433 6.56387 8.3271C6.84521 8.63987 7.05762 9.00832 7.18731 9.40851C7.317 9.80871 7.36108 10.2317 7.31667 10.65C6.87173 10.6973 6.42185 10.6444 5.99999 10.4953C5.57813 10.3461 5.19497 10.1045 4.87858 9.78813C4.56219 9.47174 4.32057 9.08858 4.17144 8.66672C4.0223 8.24486 3.96942 7.79498 4.01667 7.35004C4.12 7.33871 4.22667 7.33337 4.33334 7.33337Z" fill="#0F1324" fill-opacity="0.6"/>
</svg>
