<svg width="16" height="16" viewBox="0 0 16 16" fill="none" xmlns="http://www.w3.org/2000/svg">
<path d="M7.74933 4.81465C7.16533 4.81465 6.26133 4.15065 5.30933 4.17465C4.05333 4.19065 2.90133 4.90265 2.25333 6.03065C0.949329 8.29465 1.91733 11.6386 3.18933 13.4786C3.81333 14.3746 4.54933 15.3826 5.52533 15.3506C6.46133 15.3106 6.81333 14.7426 7.94933 14.7426C9.07733 14.7426 9.39733 15.3506 10.3893 15.3266C11.3973 15.3106 12.0373 14.4146 12.6533 13.5106C13.3653 12.4706 13.6613 11.4626 13.6773 11.4066C13.6533 11.3986 11.7173 10.6546 11.6933 8.41465C11.6773 6.54265 13.2213 5.64665 13.2933 5.60665C12.4133 4.31865 11.0613 4.17465 10.5893 4.14265C9.35733 4.04665 8.32533 4.81465 7.74933 4.81465V4.81465ZM9.82933 2.92665C10.3493 2.30265 10.6933 1.43065 10.5973 0.56665C9.85333 0.59865 8.95733 1.06265 8.42133 1.68665C7.94133 2.23865 7.52533 3.12665 7.63733 3.97465C8.46133 4.03865 9.30933 3.55065 9.82933 2.92665V2.92665Z" fill="white"/>
</svg>
