<svg width="16" height="16" viewBox="0 0 16 16" fill="none" xmlns="http://www.w3.org/2000/svg">
<path d="M5.33334 5.33337V10.6667H10.6667V5.33337H5.33334ZM4 4.00004H12V12H4V4.00004ZM4 1.33337H5.33334V3.33337H4V1.33337ZM4 12.6667H5.33334V14.6667H4V12.6667ZM1.33334 4.00004H3.33334V5.33337H1.33334V4.00004ZM1.33334 10.6667H3.33334V12H1.33334V10.6667ZM12.6667 4.00004H14.6667V5.33337H12.6667V4.00004ZM12.6667 10.6667H14.6667V12H12.6667V10.6667ZM10.6667 1.33337H12V3.33337H10.6667V1.33337ZM10.6667 12.6667H12V14.6667H10.6667V12.6667Z" fill="#0F1324" fill-opacity="0.6"/>
</svg>
