<svg width="23" height="32" viewBox="0 0 23 32" fill="none" xmlns="http://www.w3.org/2000/svg">
<g clip-path="url(#clip0_6_6464)">
<path d="M22.069 29.9229H0V32.0003H22.069V29.9229Z" fill="#102147"/>
<path d="M16.6945 3.95381V0.334961" stroke="#102147" stroke-width="0.283145" stroke-miterlimit="10" stroke-linecap="round"/>
<path d="M16.6945 0.402094C16.8058 0.402094 16.896 0.312082 16.896 0.201047C16.896 0.0900119 16.8058 0 16.6945 0C16.5832 0 16.4929 0.0900119 16.4929 0.201047C16.4929 0.312082 16.5832 0.402094 16.6945 0.402094Z" fill="#102147"/>
<path d="M5.47524 30.9612H16.7952V2.47949C16.7952 2.47949 9.97637 8.0418 9.74124 11.1245H8.19607C8.19607 11.1245 3.69494 21.3779 5.47524 30.9612Z" fill="#C4C4C4"/>
<path d="M17.2993 9.24805H16.6274V30.8606H17.2993V9.24805Z" fill="#102147"/>
<path d="M12.2269 9.68359H10.1779C10.01 9.98516 9.842 10.3202 9.70764 10.6218H11.7567C11.891 10.3202 12.059 9.98516 12.2269 9.68359Z" fill="#144EA2"/>
<path d="M11.6222 10.8564H9.57321C9.40526 11.158 9.2709 11.4931 9.13654 11.7947H11.1856C11.3199 11.4931 11.4879 11.158 11.6222 10.8564Z" fill="#305EAB"/>
<path d="M11.0849 12.0293H9.0359C8.90154 12.3309 8.76717 12.6659 8.63281 12.9675H10.6818C10.8162 12.6659 10.9506 12.3309 11.0849 12.0293Z" fill="#5889C7"/>
<path d="M10.581 13.2021H8.53197C8.39761 13.5037 8.29684 13.8388 8.16248 14.1404H10.2115C10.3459 13.8053 10.4802 13.5037 10.581 13.2021Z" fill="#144EA2"/>
<path d="M10.1444 14.375H8.09541C7.99463 14.6766 7.89386 15.0116 7.79309 15.3132H9.84211C9.94288 14.9781 10.0437 14.6766 10.1444 14.375Z" fill="#305EAB"/>
<path d="M9.7749 15.5469H7.72588C7.62511 15.8484 7.52433 16.1835 7.45715 16.4851H9.50617C9.57335 16.15 9.67413 15.8484 9.7749 15.5469Z" fill="#5889C7"/>
<path d="M9.43888 16.7207H7.38986C7.32268 17.0223 7.22191 17.3574 7.15472 17.6589H9.20375C9.27093 17.3238 9.33811 17.0223 9.43888 16.7207Z" fill="#144EA2"/>
<path d="M9.13661 17.8594H7.08759C7.02041 18.1609 6.95323 18.496 6.88605 18.7976H8.93507C9.00225 18.496 9.06943 18.1945 9.13661 17.8594Z" fill="#305EAB"/>
<path d="M8.90142 19.0322H6.8524C6.78522 19.3338 6.75163 19.6689 6.68445 19.9704H8.73347C8.80065 19.6689 8.86783 19.3673 8.90142 19.0322Z" fill="#5889C7"/>
<path d="M8.73349 20.2051H6.68447C6.65088 20.5066 6.5837 20.8417 6.55011 21.1433H8.59913C8.63272 20.8417 8.66631 20.5402 8.73349 20.2051Z" fill="#144EA2"/>
<path d="M8.56544 21.3779H6.51642C6.48283 21.6795 6.44924 22.0146 6.41565 22.3162H8.46467C8.49826 22.0146 8.53185 21.6795 8.56544 21.3779Z" fill="#305EAB"/>
<path d="M8.46475 22.5508H6.41573C6.38214 22.8524 6.38214 23.1874 6.38214 23.489H8.43116C8.43116 23.1874 8.46475 22.8524 8.46475 22.5508Z" fill="#5889C7"/>
<path d="M8.39757 23.7236H6.38214C6.38214 24.0252 6.38214 24.3603 6.38214 24.6618H8.39757C8.39757 24.3603 8.39757 24.0252 8.39757 23.7236Z" fill="#144EA2"/>
<path d="M8.39759 24.8965H6.34857C6.34857 25.1981 6.34857 25.5331 6.38216 25.8347H8.43118C8.39759 25.4996 8.39759 25.1981 8.39759 24.8965Z" fill="#305EAB"/>
<path d="M8.39759 26.0352H6.34857C6.34857 26.3367 6.34857 26.6718 6.38216 26.9734H8.43118C8.39759 26.6718 8.39759 26.3702 8.39759 26.0352Z" fill="#5889C7"/>
<path d="M8.39759 27.208H6.34857C6.34857 27.5096 6.34857 27.8447 6.38216 28.1462H8.43118C8.39759 27.8447 8.39759 27.5096 8.39759 27.208Z" fill="#144EA2"/>
<path d="M8.39759 28.3809H6.34857C6.34857 28.6824 6.34857 29.0175 6.38216 29.3191H8.43118C8.39759 28.984 8.39759 28.6824 8.39759 28.3809Z" fill="#305EAB"/>
<path d="M8.39759 29.5205H6.34857C6.34857 29.8221 6.34857 30.1572 6.38216 30.4587H8.43118C8.39759 30.1572 8.39759 29.8556 8.39759 29.5205Z" fill="#5889C7"/>
<path d="M15.6532 29.4199H8.90155C8.90155 29.7215 8.90155 30.0566 8.93514 30.3581H15.754C15.6868 30.0566 15.6532 29.755 15.6532 29.4199Z" fill="#5889C7"/>
<path d="M15.6533 28.2803H8.86798C8.86798 28.5818 8.86798 28.9169 8.86798 29.2185H15.7204C15.6869 28.8834 15.6533 28.5818 15.6533 28.2803Z" fill="#305EAB"/>
<path d="M15.6533 27.1084H8.90157C8.90157 27.41 8.86798 27.745 8.86798 28.0466H15.6869C15.6869 27.745 15.6533 27.41 15.6533 27.1084Z" fill="#144EA2"/>
<path d="M15.6533 25.9688H8.96877C8.93518 26.2703 8.93518 26.6054 8.93518 26.907H15.7541C15.6869 26.5719 15.6533 26.2703 15.6533 25.9688Z" fill="#5889C7"/>
<path d="M15.6533 24.7959H9.03593C9.00234 25.0975 9.00234 25.4325 8.96875 25.7341H15.7204C15.6869 25.4325 15.6533 25.0975 15.6533 24.7959Z" fill="#305EAB"/>
<path d="M15.6533 23.623H9.13672C9.10313 23.9246 9.06954 24.2597 9.03595 24.5613H15.6869C15.6869 24.2597 15.6533 23.9581 15.6533 23.623Z" fill="#144EA2"/>
<path d="M15.6532 22.4834H9.271C9.23741 22.785 9.20382 23.12 9.17023 23.4216H15.7204C15.6868 23.0865 15.6532 22.785 15.6532 22.4834Z" fill="#5889C7"/>
<path d="M15.6533 21.3115H9.43905C9.40546 21.6131 9.33828 21.9482 9.30469 22.2497H15.7205C15.6869 21.9482 15.6533 21.6131 15.6533 21.3115Z" fill="#305EAB"/>
<path d="M15.6532 20.1719H9.64049C9.57331 20.4734 9.53972 20.8085 9.47253 21.1101H15.7204C15.6868 20.775 15.6532 20.4734 15.6532 20.1719Z" fill="#144EA2"/>
<path d="M15.6534 18.999H9.87586C9.80868 19.3006 9.7415 19.6357 9.67432 19.9372H15.7206C15.687 19.6357 15.6534 19.3006 15.6534 18.999Z" fill="#5889C7"/>
<path d="M15.6533 17.8262H10.1108C10.0437 18.1277 9.97648 18.4628 9.9093 18.7644H15.7205C15.6869 18.4628 15.6533 18.1613 15.6533 17.8262Z" fill="#305EAB"/>
<path d="M15.6533 16.6865H10.4132C10.346 16.9881 10.2452 17.3232 10.178 17.6247H15.7205C15.6869 17.2897 15.6533 16.9881 15.6533 16.6865Z" fill="#144EA2"/>
<path d="M15.6532 15.5146H10.7154C10.6147 15.8162 10.5475 16.1513 10.4467 16.4529H15.6868C15.6868 16.1513 15.6532 15.8162 15.6532 15.5146Z" fill="#5889C7"/>
<path d="M15.6533 14.3418H11.085C10.9842 14.6434 10.8834 14.9784 10.7827 15.28H15.7205C15.6869 14.9784 15.6533 14.6769 15.6533 14.3418Z" fill="#305EAB"/>
<path d="M15.6531 13.2021H11.4879C11.3872 13.5037 11.2864 13.8388 11.1856 14.1404H15.7539C15.6867 13.8053 15.6531 13.5037 15.6531 13.2021Z" fill="#144EA2"/>
<path d="M15.6533 12.0293H11.8911C11.7568 12.3309 11.656 12.6659 11.5552 12.9675H15.7205C15.6869 12.6659 15.6533 12.3644 15.6533 12.0293Z" fill="#5889C7"/>
<path d="M15.6532 10.8896H12.3614C12.227 11.1912 12.1262 11.5263 11.9919 11.8279H15.7204C15.6868 11.4928 15.6532 11.1912 15.6532 10.8896Z" fill="#305EAB"/>
<path d="M15.6533 9.75098H12.8317C12.6973 10.0525 12.563 10.3541 12.4286 10.6557H15.6869C15.6869 10.3541 15.6533 10.0525 15.6533 9.75098Z" fill="#144EA2"/>
<path d="M16.3249 9.44897H11.4879C11.4879 9.44897 13.9064 5.3275 16.3921 4.32227L16.3249 9.44897Z" fill="#102147"/>
<path d="M18.6427 11.0908L16.896 12.4311" stroke="#102147" stroke-width="0.283145" stroke-miterlimit="10"/>
<path d="M19.5832 10.8565C19.5832 11.0911 18.9114 11.2921 18.0716 11.2921C17.2319 11.2921 16.5601 11.0911 16.5601 10.8565C16.5601 10.6219 17.2319 10.4209 18.0716 10.4209C18.9114 10.4209 19.5832 10.6219 19.5832 10.8565Z" fill="#102147"/>
<path d="M8.36416 8.37695L8.33057 11.0911" stroke="#102147" stroke-width="0.283145" stroke-miterlimit="10"/>
<path d="M8.33057 8.34277L10.0773 9.68309" stroke="#102147" stroke-width="0.283145" stroke-miterlimit="10"/>
<path d="M9.90919 8.17584C9.90919 8.41039 9.23738 8.61144 8.39762 8.61144C7.55786 8.61144 6.88605 8.41039 6.88605 8.17584C6.88605 7.94128 7.55786 7.74023 8.39762 7.74023C9.23738 7.74023 9.90919 7.94128 9.90919 8.17584Z" fill="#102147"/>
<path d="M5.64319 30.9612C7.69222 21.5455 13.6377 13.336 16.7952 9.48263V2.47949C16.7952 2.47949 9.97637 8.0418 9.74124 11.1245H8.19607C8.19607 11.1245 3.69494 21.3779 5.47524 30.9277H5.64319V30.9612Z" fill="#200E32" fill-opacity="0.1"/>
</g>
<defs>
<clipPath id="clip0_6_6464">
<rect width="22.069" height="32" fill="white"/>
</clipPath>
</defs>
</svg>
