<svg width="14" height="14" viewBox="0 0 14 14" fill="none" xmlns="http://www.w3.org/2000/svg">
<path d="M10.5 4.66665H11.6667C11.8214 4.66665 11.9697 4.7281 12.0791 4.8375C12.1885 4.9469 12.25 5.09527 12.25 5.24998V12.25C12.25 12.4047 12.1885 12.5531 12.0791 12.6625C11.9697 12.7719 11.8214 12.8333 11.6667 12.8333H2.33333C2.17862 12.8333 2.03025 12.7719 1.92085 12.6625C1.81146 12.5531 1.75 12.4047 1.75 12.25V5.24998C1.75 5.09527 1.81146 4.9469 1.92085 4.8375C2.03025 4.7281 2.17862 4.66665 2.33333 4.66665H3.5V4.08331C3.5 3.15506 3.86875 2.26482 4.52513 1.60844C5.1815 0.952062 6.07174 0.583313 7 0.583313C7.92826 0.583313 8.8185 0.952062 9.47487 1.60844C10.1313 2.26482 10.5 3.15506 10.5 4.08331V4.66665ZM6.41667 9.17698V10.5H7.58333V9.17698C7.80575 9.04857 7.97958 8.85035 8.07786 8.61308C8.17614 8.37581 8.19338 8.11273 8.12691 7.86466C8.06044 7.61659 7.91397 7.39738 7.71022 7.24104C7.50647 7.08469 7.25682 6.99995 7 6.99995C6.74318 6.99995 6.49353 7.08469 6.28978 7.24104C6.08603 7.39738 5.93956 7.61659 5.87309 7.86466C5.80662 8.11273 5.82386 8.37581 5.92214 8.61308C6.02042 8.85035 6.19425 9.04857 6.41667 9.17698V9.17698ZM9.33333 4.66665V4.08331C9.33333 3.46447 9.0875 2.87098 8.64992 2.4334C8.21233 1.99581 7.61884 1.74998 7 1.74998C6.38116 1.74998 5.78767 1.99581 5.35008 2.4334C4.9125 2.87098 4.66667 3.46447 4.66667 4.08331V4.66665H9.33333Z" fill="#0D1126" fill-opacity="0.4"/>
</svg>
