<svg width="20" height="20" viewBox="0 0 20 20" fill="none" xmlns="http://www.w3.org/2000/svg">
<path d="M9.99999 18.3332C5.39749 18.3332 1.66666 14.6023 1.66666 9.99984C1.66666 5.39734 5.39749 1.6665 9.99999 1.6665C14.6025 1.6665 18.3333 5.39734 18.3333 9.99984C18.3333 14.6023 14.6025 18.3332 9.99999 18.3332ZM9.99999 16.6665C11.7681 16.6665 13.4638 15.9641 14.714 14.7139C15.9643 13.4636 16.6667 11.7679 16.6667 9.99984C16.6667 8.23173 15.9643 6.53603 14.714 5.28579C13.4638 4.03555 11.7681 3.33317 9.99999 3.33317C8.23188 3.33317 6.53619 4.03555 5.28594 5.28579C4.0357 6.53603 3.33332 8.23173 3.33332 9.99984C3.33332 11.7679 4.0357 13.4636 5.28594 14.7139C6.53619 15.9641 8.23188 16.6665 9.99999 16.6665V16.6665ZM12.8717 8.3065L8.30666 12.8715C7.8209 12.5842 7.41558 12.1789 7.12832 11.6932L11.6933 7.12817C12.1791 7.41543 12.5844 7.82075 12.8717 8.3065V8.3065Z" fill="#924FE8"/>
</svg>
