<svg width="25" height="24" viewBox="0 0 25 24" fill="none" xmlns="http://www.w3.org/2000/svg">
<path d="M10.1852 3.50028C7.99377 4.2501 6.12646 5.89005 5.08638 7.96538C4.72356 8.68134 4.46233 9.44085 4.30269 10.2294C3.90601 12.1838 4.18175 14.2688 5.08154 16.049C5.66689 17.21 6.50863 18.2453 7.52453 19.0531C8.48721 19.8175 9.60469 20.3883 10.7947 20.7028C12.2944 21.1043 13.8908 21.0946 15.4001 20.7511C16.7643 20.4367 18.056 19.7836 19.0864 18.8355C20.1748 17.8341 20.9537 16.5182 21.3649 15.1008C21.8148 13.5576 21.8728 11.908 21.5923 10.3213C18.7719 10.3213 15.9468 10.3213 13.1265 10.3213C13.1265 11.492 13.1265 12.6627 13.1265 13.8334C14.7616 13.8334 16.3967 13.8334 18.0318 13.8334C17.8431 14.9557 17.1755 15.9813 16.2322 16.615C15.6372 17.0165 14.9551 17.2729 14.2488 17.3987C13.5425 17.5196 12.8072 17.5341 12.1009 17.3939C11.3801 17.2487 10.698 16.9488 10.0981 16.5279C9.14029 15.8555 8.40981 14.8735 8.03731 13.7657C7.65514 12.6385 7.6503 11.3856 8.03731 10.2632C8.30822 9.46987 8.75328 8.73939 9.34346 8.13953C10.0691 7.39454 11.0124 6.86241 12.0332 6.64471C12.9039 6.46089 13.8231 6.49475 14.6745 6.75114C15.4001 6.96883 16.0677 7.37035 16.6144 7.89281C17.1659 7.34133 17.7173 6.78984 18.2688 6.23836C18.5591 5.94326 18.8639 5.65784 19.1444 5.35308C18.3075 4.57906 17.3207 3.95501 16.2467 3.55833C14.3117 2.84236 12.1348 2.82785 10.1852 3.50028Z" fill="white"/>
<path d="M10.1849 3.49888C12.1296 2.82646 14.3113 2.84097 16.2464 3.5521C17.3203 3.94878 18.3023 4.56799 19.1441 5.34685C18.8635 5.65162 18.5587 5.93703 18.2685 6.23213C17.717 6.78361 17.1655 7.3351 16.614 7.88658C16.0674 7.36412 15.3998 6.96744 14.6741 6.74491C13.8227 6.48852 12.9036 6.44982 12.0328 6.63848C11.0169 6.85618 10.0736 7.38831 9.34311 8.1333C8.75293 8.72833 8.30787 9.46364 8.03696 10.257C7.05493 9.49267 6.0729 8.73316 5.08603 7.96882C6.12611 5.88866 7.99342 4.24871 10.1849 3.49888Z" fill="#F44336"/>
<path d="M4.30732 10.223C4.46696 9.43929 4.72819 8.67495 5.09101 7.95898C6.07304 8.72332 7.05507 9.48283 8.04194 10.2472C7.65493 11.3743 7.65493 12.6273 8.04194 13.7496C7.05991 14.5139 6.07788 15.2783 5.09584 16.0378C4.18638 14.2624 3.91063 12.1774 4.30732 10.223Z" fill="#FBBC05"/>
<path d="M13.1265 10.3149C15.9468 10.3149 18.772 10.3149 21.5923 10.3149C21.8729 11.8968 21.81 13.5465 21.3649 15.0945C20.9537 16.5119 20.1749 17.8277 19.0864 18.8291C18.1334 18.089 17.1804 17.3488 16.2274 16.6087C17.1707 15.9749 17.8383 14.9494 18.027 13.827C16.3919 13.827 14.7568 13.827 13.1217 13.827C13.1265 12.6563 13.1265 11.4856 13.1265 10.3149Z" fill="#1976D2"/>
<path d="M5.08621 16.0426C6.06824 15.2831 7.05028 14.5187 8.03231 13.7544C8.40964 14.8622 9.13528 15.8442 10.0931 16.5167C10.693 16.9375 11.3799 17.2375 12.0959 17.3826C12.8022 17.5277 13.5327 17.5084 14.2438 17.3874C14.9501 17.2617 15.6322 17.0053 16.2272 16.6037C17.1802 17.3439 18.1332 18.084 19.0862 18.8242C18.0558 19.7772 16.7642 20.4254 15.4 20.7399C13.8906 21.0834 12.2942 21.093 10.7946 20.6915C9.60453 20.3771 8.48704 19.8111 7.52436 19.0419C6.5133 18.2388 5.67156 17.2036 5.08621 16.0426Z" fill="#21BA45"/>
</svg>
