<svg width="25" height="24" viewBox="0 0 25 24" fill="none" xmlns="http://www.w3.org/2000/svg">
<path d="M12.6666 2C15.3836 2 15.7226 2.01 16.7886 2.06C17.8536 2.11 18.5786 2.277 19.2166 2.525C19.8766 2.779 20.4326 3.123 20.9886 3.678C21.4971 4.1779 21.8906 4.78259 22.1416 5.45C22.3886 6.087 22.5566 6.813 22.6066 7.878C22.6536 8.944 22.6666 9.283 22.6666 12C22.6666 14.717 22.6566 15.056 22.6066 16.122C22.5566 17.187 22.3886 17.912 22.1416 18.55C21.8913 19.2178 21.4977 19.8226 20.9886 20.322C20.4886 20.8303 19.8839 21.2238 19.2166 21.475C18.5796 21.722 17.8536 21.89 16.7886 21.94C15.7226 21.987 15.3836 22 12.6666 22C9.94963 22 9.61063 21.99 8.54463 21.94C7.47963 21.89 6.75463 21.722 6.11663 21.475C5.44895 21.2245 4.84415 20.8309 4.34463 20.322C3.83603 19.8222 3.44256 19.2175 3.19163 18.55C2.94363 17.913 2.77663 17.187 2.72663 16.122C2.67963 15.056 2.66663 14.717 2.66663 12C2.66663 9.283 2.67663 8.944 2.72663 7.878C2.77663 6.812 2.94363 6.088 3.19163 5.45C3.44186 4.78218 3.83543 4.17732 4.34463 3.678C4.8443 3.16923 5.44905 2.77573 6.11663 2.525C6.75463 2.277 7.47863 2.11 8.54463 2.06C9.61063 2.013 9.94963 2 12.6666 2ZM12.6666 7C11.3405 7 10.0688 7.52678 9.13109 8.46447C8.19341 9.40215 7.66663 10.6739 7.66663 12C7.66663 13.3261 8.19341 14.5979 9.13109 15.5355C10.0688 16.4732 11.3405 17 12.6666 17C13.9927 17 15.2645 16.4732 16.2022 15.5355C17.1398 14.5979 17.6666 13.3261 17.6666 12C17.6666 10.6739 17.1398 9.40215 16.2022 8.46447C15.2645 7.52678 13.9927 7 12.6666 7ZM19.1666 6.75C19.1666 6.41848 19.0349 6.10054 18.8005 5.86612C18.5661 5.6317 18.2481 5.5 17.9166 5.5C17.5851 5.5 17.2672 5.6317 17.0327 5.86612C16.7983 6.10054 16.6666 6.41848 16.6666 6.75C16.6666 7.08152 16.7983 7.39946 17.0327 7.63388C17.2672 7.8683 17.5851 8 17.9166 8C18.2481 8 18.5661 7.8683 18.8005 7.63388C19.0349 7.39946 19.1666 7.08152 19.1666 6.75ZM12.6666 9C13.4623 9 14.2253 9.31607 14.7879 9.87868C15.3506 10.4413 15.6666 11.2044 15.6666 12C15.6666 12.7956 15.3506 13.5587 14.7879 14.1213C14.2253 14.6839 13.4623 15 12.6666 15C11.871 15 11.1079 14.6839 10.5453 14.1213C9.9827 13.5587 9.66663 12.7956 9.66663 12C9.66663 11.2044 9.9827 10.4413 10.5453 9.87868C11.1079 9.31607 11.871 9 12.6666 9Z" fill="#0D1126" fill-opacity="0.4"/>
</svg>
