<svg width="20" height="20" viewBox="0 0 20 20" fill="none" xmlns="http://www.w3.org/2000/svg">
<path d="M4.72584 3.54759L11.1783 10.0001L10 11.1784L4.73334 5.91175C3.75183 7.17756 3.25887 8.75443 3.34464 10.3539C3.43041 11.9533 4.08918 13.4684 5.20043 14.622C6.31168 15.7756 7.80111 16.4905 9.39625 16.636C10.9914 16.7815 12.5856 16.3478 13.8872 15.4143C15.1888 14.4807 16.1107 13.1098 16.4844 11.5522C16.8581 9.9947 16.6586 8.35467 15.9222 6.93219C15.1859 5.50972 13.962 4.39991 12.4745 3.80579C10.987 3.21167 9.33536 3.17296 7.82167 3.69675L6.54167 2.41675C7.62715 1.92113 8.80672 1.66532 10 1.66675C14.6025 1.66675 18.3333 5.39759 18.3333 10.0001C18.3333 14.6026 14.6025 18.3334 10 18.3334C5.3975 18.3334 1.66667 14.6026 1.66667 10.0001C1.66541 8.76488 1.93931 7.54491 2.46847 6.42879C2.99763 5.31267 3.76876 4.32844 4.72584 3.54759V3.54759Z" fill="#0F1324" fill-opacity="0.6"/>
</svg>
