<svg width="20" height="20" viewBox="0 0 20 20" fill="none" xmlns="http://www.w3.org/2000/svg">
<path d="M5.19584 5.37734C4.13337 6.48008 3.48292 7.91496 3.35381 9.44081C3.22471 10.9667 3.62481 12.4904 4.48689 13.756C5.34896 15.0216 6.62043 15.9518 8.0876 16.3904C9.55476 16.8289 11.1282 16.7489 12.5433 16.164C12.6392 15.539 12.4292 14.939 12.3433 14.729C12.1517 14.2623 11.52 13.4648 10.4658 12.359C10.1842 12.0632 10.2025 11.8357 10.3033 11.1615L10.3142 11.0857C10.3825 10.624 10.4975 10.3507 12.0517 10.104C12.8417 9.979 13.0492 10.294 13.3367 10.7315L13.4333 10.8748C13.7067 11.2748 13.9092 11.3665 14.215 11.5048C14.3525 11.5673 14.5233 11.6465 14.7525 11.7757C15.2958 12.0865 15.2958 12.4373 15.2958 13.2057V13.2932C15.2958 13.619 15.2642 13.9057 15.2142 14.1548C15.8536 13.3523 16.2993 12.4129 16.5163 11.41C16.7334 10.407 16.7161 9.36752 16.4657 8.37236C16.2153 7.37721 15.7386 6.45326 15.0728 5.67245C14.4069 4.89165 13.5698 4.27505 12.6267 3.87067C12.1658 4.1815 11.5333 4.62234 11.3125 4.92484C11.2 5.079 11.04 5.86817 10.5208 5.93317C10.3858 5.94984 10.2033 5.93817 10.01 5.92567C9.49167 5.89234 8.78334 5.8465 8.55667 6.46234C8.41251 6.85234 8.38751 7.91234 8.85334 8.46234C8.92834 8.54984 8.94251 8.71234 8.89167 8.89484C8.82501 9.134 8.69084 9.27984 8.64834 9.30984C8.56834 9.26317 8.40834 9.07734 8.29917 8.9515C8.03834 8.64734 7.71167 8.26817 7.29001 8.1515C7.13667 8.109 6.96834 8.074 6.80417 8.039C6.34667 7.94317 5.82917 7.834 5.70834 7.57734C5.62001 7.389 5.62084 7.12984 5.62084 6.8565C5.62084 6.509 5.62084 6.1165 5.45084 5.73567C5.39174 5.59976 5.30488 5.47771 5.19584 5.37734V5.37734ZM10 18.3332C5.39751 18.3332 1.66667 14.6023 1.66667 9.99984C1.66667 5.39734 5.39751 1.6665 10 1.6665C14.6025 1.6665 18.3333 5.39734 18.3333 9.99984C18.3333 14.6023 14.6025 18.3332 10 18.3332Z" fill="#0D1126" fill-opacity="0.4"/>
</svg>
