<svg width="20" height="20" viewBox="0 0 20 20" fill="none" xmlns="http://www.w3.org/2000/svg">
<path d="M5.78333 11.6966C5.58917 12.2166 5.425 12.6966 5.27833 13.1825C6.07833 12.6016 7.02917 12.2333 8.12667 12.0958C10.2208 11.8341 12.0817 10.4516 13.0233 8.71413L11.81 7.50163L12.9875 6.32246L13.8208 5.48829C14.1792 5.12996 14.5833 4.46829 15.0108 3.51496C10.35 4.23746 7.49583 7.09163 5.7825 11.6966H5.78333ZM14.1667 7.50079L15 8.33329C14.1667 10.8333 11.6667 13.3333 8.33333 13.75C6.10917 14.0283 4.72 15.5558 4.165 18.3333H2.5C3.33333 13.3333 5 1.66663 17.5 1.66663C16.6667 4.16413 15.835 5.82996 15.0025 6.66413L14.1667 7.50079Z" fill="#0F1324" fill-opacity="0.6"/>
</svg>
