<svg width="16" height="16" viewBox="0 0 16 16" fill="none" xmlns="http://www.w3.org/2000/svg">
<path d="M7.74934 4.81465C7.16534 4.81465 6.26134 4.15065 5.30934 4.17465C4.05334 4.19065 2.90134 4.90265 2.25334 6.03065C0.949336 8.29465 1.91734 11.6386 3.18934 13.4786C3.81334 14.3746 4.54934 15.3826 5.52534 15.3506C6.46134 15.3106 6.81334 14.7426 7.94934 14.7426C9.07734 14.7426 9.39734 15.3506 10.3893 15.3266C11.3973 15.3106 12.0373 14.4146 12.6533 13.5106C13.3653 12.4706 13.6613 11.4626 13.6773 11.4066C13.6533 11.3986 11.7173 10.6546 11.6933 8.41465C11.6773 6.54265 13.2213 5.64665 13.2933 5.60665C12.4133 4.31865 11.0613 4.17465 10.5893 4.14265C9.35734 4.04665 8.32534 4.81465 7.74934 4.81465V4.81465ZM9.82934 2.92665C10.3493 2.30265 10.6933 1.43065 10.5973 0.56665C9.85334 0.59865 8.95734 1.06265 8.42134 1.68665C7.94134 2.23865 7.52534 3.12665 7.63734 3.97465C8.46134 4.03865 9.30934 3.55065 9.82934 2.92665V2.92665Z" fill="#0F1324" fill-opacity="0.6"/>
</svg>
