<svg width="25" height="24" viewBox="0 0 25 24" fill="none" xmlns="http://www.w3.org/2000/svg">
<path d="M22.8286 5.65593C22.0652 5.99362 21.2556 6.2154 20.4266 6.31393C21.3004 5.79136 21.9543 4.96894 22.2666 3.99993C21.4466 4.48793 20.5476 4.82993 19.6106 5.01493C18.9812 4.34151 18.147 3.89489 17.2376 3.74451C16.3282 3.59413 15.3946 3.74842 14.5819 4.18338C13.7692 4.61834 13.123 5.30961 12.7437 6.14972C12.3645 6.98983 12.2734 7.93171 12.4846 8.82893C10.8217 8.74558 9.19495 8.31345 7.7099 7.56059C6.22486 6.80773 4.91475 5.75097 3.86462 4.45893C3.49291 5.09738 3.29757 5.82315 3.29862 6.56193C3.29862 8.01193 4.03662 9.29293 5.15862 10.0429C4.49463 10.022 3.84525 9.84271 3.26462 9.51993V9.57193C3.26482 10.5376 3.59899 11.4735 4.21047 12.221C4.82194 12.9684 5.6731 13.4814 6.61962 13.6729C6.00323 13.84 5.35692 13.8646 4.72962 13.7449C4.99648 14.5762 5.51662 15.3031 6.21721 15.824C6.91779 16.3449 7.76375 16.6337 8.63662 16.6499C7.7691 17.3313 6.77579 17.8349 5.7135 18.1321C4.6512 18.4293 3.54075 18.5142 2.44562 18.3819C4.35732 19.6114 6.58271 20.264 8.85562 20.2619C16.5486 20.2619 20.7556 13.8889 20.7556 8.36193C20.7556 8.18193 20.7506 7.99993 20.7426 7.82193C21.5615 7.23009 22.2682 6.49695 22.8296 5.65693L22.8286 5.65593Z" fill="#0D1126" fill-opacity="0.4"/>
</svg>
