<svg width="136" height="28" viewBox="0 0 136 28" fill="none" xmlns="http://www.w3.org/2000/svg">
<path fill-rule="evenodd" clip-rule="evenodd" d="M8.28845 10.6969L16.1239 5.69843L23.9594 10.6699L16.1239 15.6684L23.9188 20.6939L31.7543 15.6954L23.9188 10.6969L31.7543 5.69843L23.9188 0.699951L16.1239 5.69843L8.28845 0.699951L0.453003 5.69843L8.28845 10.6699L0.453003 15.6684L8.28845 20.6939L16.1239 15.6954L8.28845 10.6969ZM16.0834 17.303L8.24793 22.3015L16.0834 27.3L23.9188 22.3015L16.0834 17.303ZM44.237 5.69834H37.9011V22.2879H44.3585C48.4924 22.2879 51.6131 19.8697 51.6131 14.493V13.3717C51.6131 8.03546 48.2763 5.69834 44.237 5.69834ZM41.4405 19.2618V8.71093H44.0343C46.3714 8.71093 47.9926 10.2105 47.9926 13.5473V14.4254C47.9926 17.7622 46.4525 19.2618 44.1559 19.2618H41.4405ZM56.3279 8.87304H53.5449V22.3284H57.0439V16.1546C57.0439 13.3176 57.7464 12.3179 60.6239 12.3179H62.0829V8.73795H61.2048C58.7055 8.73795 57.3276 9.87274 56.7872 11.9937L56.3279 8.87304ZM62.7854 15.4926V15.8709C62.7854 20.302 65.2441 22.6256 69.5806 22.6661C73.6604 22.6661 76.3758 20.2885 76.3758 15.8709V15.4926C76.3758 10.994 73.5794 8.53531 69.5806 8.53531C65.6629 8.53531 62.7854 10.994 62.7854 15.4926ZM72.7958 15.4926V15.8304C72.7958 18.2486 71.5395 19.586 69.5401 19.6265C67.5407 19.6265 66.2843 18.2486 66.2843 15.8304V15.4926C66.2843 12.8718 67.5812 11.4939 69.5401 11.4939C71.5395 11.4939 72.7958 12.9934 72.7958 15.4926ZM81.1311 8.87304H78.2131L78.1726 26.9756H81.5904V20.1804C82.3064 21.7205 83.7655 22.6796 85.8864 22.6796C89.0611 22.6796 91.5604 20.3425 91.5604 15.9249V15.5467C91.5604 10.994 89.3043 8.53531 85.8864 8.53531C83.6709 8.53531 82.1713 9.71063 81.4689 11.4128L81.1311 8.87304ZM88.0074 15.5332V15.8304C88.0074 18.3431 86.7645 19.6265 84.7516 19.667C82.7928 19.667 81.5364 18.1675 81.5364 15.7899V15.5332C81.5364 13.0339 82.8333 11.5344 84.7922 11.5344C86.6294 11.5344 88.0074 12.8583 88.0074 15.5332ZM96.4373 22.3014L96.7345 19.8427C97.437 21.5854 98.896 22.6256 101.152 22.6796C104.57 22.6796 106.826 20.1264 106.826 15.6683V15.2495C106.826 10.7914 104.448 8.57584 101.233 8.53531C99.1121 8.53531 97.6126 9.49448 96.8561 11.2507V4.37442H93.4382V22.3014H96.4373ZM103.232 15.3305V15.6683C103.232 18.3431 102.03 19.6265 99.9767 19.6265C98.0584 19.6265 96.7615 18.1675 96.7615 15.6683V15.3711C96.7615 13.0339 98.0989 11.4939 100.017 11.4939C101.895 11.4939 103.232 12.8718 103.232 15.3305ZM108.326 15.4926V15.8709C108.326 20.302 110.784 22.6256 115.121 22.6661C119.16 22.6661 121.916 20.2885 121.916 15.8709V15.4926C121.916 10.994 119.12 8.53531 115.121 8.53531C111.203 8.53531 108.326 10.994 108.326 15.4926ZM118.363 15.4926V15.8304C118.363 18.2486 117.12 19.586 115.107 19.6265C113.108 19.6265 111.851 18.2486 111.851 15.8304V15.4926C111.851 12.8718 113.148 11.4939 115.107 11.4939C117.107 11.4939 118.363 12.9934 118.363 15.4926ZM121.781 8.87304L126.496 15.3305L121.376 22.3014H125.51L128.509 17.8433L131.589 22.3014H135.547L130.508 15.29L135.29 8.87304H131.292L128.536 12.9124L125.82 8.87304H121.781Z" fill="#717684"/>
</svg>
