<svg width="142" height="28" viewBox="0 0 142 28" fill="none" xmlns="http://www.w3.org/2000/svg">
<path d="M30.1298 2.58178C27.8359 1.50854 25.3832 0.728556 22.819 0.284424C22.5041 0.853785 22.1362 1.61959 21.8825 2.22878C19.1567 1.81885 16.4559 1.81885 13.7801 2.22878C13.5265 1.61959 13.1503 0.853785 12.8325 0.284424C10.2655 0.728556 7.80999 1.51141 5.51613 2.58747C0.889383 9.57908 -0.36485 16.397 0.262268 23.1182C3.33097 25.4098 6.30491 26.8019 9.22866 27.7129C9.95055 26.7193 10.5944 25.6632 11.149 24.5501C10.0927 24.1487 9.08094 23.6534 8.12496 23.0784C8.37857 22.8905 8.62665 22.694 8.86633 22.4919C14.6971 25.2191 21.0324 25.2191 26.7936 22.4919C27.036 22.694 27.2841 22.8905 27.5349 23.0784C26.5761 23.6562 25.5616 24.1515 24.5053 24.553C25.0599 25.6632 25.701 26.7222 26.4256 27.7157C29.3522 26.8047 32.3289 25.4127 35.3976 23.1182C36.1334 15.3267 34.1406 8.57132 30.1298 2.58178ZM11.9434 18.9847C10.193 18.9847 8.75761 17.3507 8.75761 15.3608C8.75761 13.3709 10.1624 11.7341 11.9434 11.7341C13.7244 11.7341 15.1598 13.3681 15.1292 15.3608C15.1319 17.3507 13.7244 18.9847 11.9434 18.9847ZM23.7165 18.9847C21.9662 18.9847 20.5307 17.3507 20.5307 15.3608C20.5307 13.3709 21.9355 11.7341 23.7165 11.7341C25.4975 11.7341 26.9329 13.3681 26.9023 15.3608C26.9023 17.3507 25.4975 18.9847 23.7165 18.9847Z" fill="#717684"/>
<path d="M47.7306 7.28235H55.3394C57.1736 7.28235 58.7232 7.57556 59.9944 8.15915C61.2623 8.7427 62.2129 9.55688 62.8429 10.5988C63.4725 11.6407 63.7902 12.8335 63.7902 14.1772C63.7902 15.4924 63.4613 16.6851 62.8036 17.7527C62.1459 18.823 61.1452 19.6685 59.7992 20.292C58.4531 20.9154 56.786 21.2285 54.7934 21.2285H47.7306V7.28235ZM54.7152 17.6844C55.95 17.6844 56.9006 17.3684 57.5637 16.7392C58.2272 16.1072 58.559 15.2475 58.559 14.1572C58.559 13.1466 58.2632 12.341 57.6725 11.7375C57.0818 11.134 56.187 10.8294 54.9911 10.8294H52.6109V17.6844H54.7152Z" fill="#717684"/>
<path d="M75.1816 21.2115C74.128 20.9326 73.1774 20.5283 72.3331 19.996V16.6881C72.9714 17.1919 73.8268 17.6076 74.8999 17.9349C75.9729 18.2595 77.01 18.4217 78.0131 18.4217C78.4814 18.4217 78.8355 18.3591 79.075 18.2338C79.315 18.1086 79.435 17.9577 79.435 17.784C79.435 17.5848 79.3708 17.4197 79.2397 17.2858C79.1085 17.1521 78.8549 17.041 78.479 16.9471L76.1376 16.409C74.7969 16.0902 73.8463 15.649 73.2808 15.0825C72.7149 14.5188 72.4332 13.7786 72.4332 12.862C72.4332 12.0905 72.6785 11.4216 73.1749 10.8494C73.668 10.2772 74.3704 9.83592 75.2817 9.52561C76.1935 9.21249 77.2578 9.05593 78.4814 9.05593C79.5739 9.05593 80.5746 9.17547 81.4863 9.41461C82.3976 9.65375 83.1501 9.95833 83.7495 10.3312V13.4598C83.136 13.0869 82.4336 12.7937 81.6311 12.5716C80.831 12.3525 80.0091 12.2443 79.1615 12.2443C77.9378 12.2443 77.3277 12.4578 77.3277 12.8819C77.3277 13.0812 77.4224 13.2293 77.6119 13.3289C77.8013 13.4285 78.1496 13.531 78.6543 13.6392L80.6051 13.9979C81.8793 14.2228 82.8295 14.6185 83.4537 15.1821C84.0784 15.7458 84.3902 16.5799 84.3902 17.6844C84.3902 18.8943 83.8748 19.8536 82.8406 20.5653C81.8064 21.277 80.3404 21.6328 78.4396 21.6328C77.3219 21.63 76.2352 21.4905 75.1816 21.2115Z" fill="#717684"/>
<path d="M88.9955 20.7929C87.8783 20.2349 87.0335 19.4777 86.4705 18.5212C85.9075 17.5647 85.6234 16.4886 85.6234 15.293C85.6234 14.0974 85.9158 13.027 86.5012 12.0847C87.0865 11.1424 87.9448 10.4023 89.0767 9.86425C90.208 9.32622 91.5599 9.05862 93.1347 9.05862C95.0855 9.05862 96.7051 9.4771 97.9928 10.314V13.9607C97.5386 13.6419 97.0087 13.3828 96.4039 13.1836C95.7991 12.9843 95.1526 12.8846 94.4613 12.8846C93.2518 12.8846 92.307 13.1095 91.624 13.5622C90.941 14.0148 90.5985 14.6041 90.5985 15.3357C90.5985 16.0531 90.9298 16.6395 91.5934 17.1007C92.2569 17.559 93.2183 17.7896 94.4808 17.7896C95.1302 17.7896 95.7714 17.6928 96.4039 17.5021C97.0339 17.3085 97.5775 17.0722 98.0317 16.7932V20.3203C96.6021 21.1971 94.9437 21.6355 93.0565 21.6355C91.4681 21.6298 90.1133 21.3509 88.9955 20.7929Z" fill="#717684"/>
<path d="M102.859 20.7931C101.733 20.2352 100.875 19.4722 100.284 18.5015C99.6929 17.5307 99.3946 16.449 99.3946 15.2534C99.3946 14.0577 99.6899 12.9902 100.284 12.0536C100.877 11.117 101.73 10.3826 102.851 9.85022C103.968 9.31788 105.303 9.05314 106.85 9.05314C108.397 9.05314 109.732 9.31788 110.85 9.85022C111.968 10.3826 112.821 11.1114 113.406 12.0422C113.991 12.9731 114.284 14.0406 114.284 15.2505C114.284 16.4461 113.991 17.5279 113.406 18.4986C112.821 19.4694 111.965 20.2323 110.839 20.7903C109.713 21.3482 108.383 21.6272 106.848 21.6272C105.312 21.6272 103.982 21.3511 102.859 20.7931ZM108.787 17.2575C109.261 16.7735 109.501 16.133 109.501 15.3359C109.501 14.5388 109.264 13.904 108.787 13.4343C108.314 12.9617 107.667 12.7254 106.848 12.7254C106.014 12.7254 105.362 12.9617 104.885 13.4343C104.412 13.9069 104.174 14.5388 104.174 15.3359C104.174 16.133 104.412 16.7735 104.885 17.2575C105.359 17.7414 106.014 17.9862 106.848 17.9862C107.667 17.9834 108.314 17.7414 108.787 17.2575Z" fill="#717684"/>
<path d="M126.006 9.79327V14.0976C125.511 13.7645 124.869 13.5994 124.075 13.5994C123.035 13.5994 122.233 13.9211 121.675 14.5644C121.115 15.2078 120.836 16.2098 120.836 17.5649V21.2315H116.056V9.57409H120.739V13.2805C120.998 11.9255 121.419 10.9263 121.998 10.28C122.576 9.6367 123.322 9.31503 124.231 9.31503C124.919 9.31503 125.511 9.47446 126.006 9.79327Z" fill="#717684"/>
<path d="M141.888 6.88377V21.2314H137.108V18.6209C136.704 19.6031 136.091 20.3518 135.266 20.8641C134.441 21.3738 133.42 21.6299 132.211 21.6299C131.13 21.6299 130.188 21.3623 129.382 20.8243C128.576 20.2863 127.955 19.549 127.517 18.6124C127.083 17.6758 126.862 16.6168 126.862 15.4326C126.849 14.2113 127.08 13.1153 127.556 12.1446C128.03 11.1738 128.702 10.4166 129.566 9.87286C130.43 9.32914 131.417 9.05585 132.523 9.05585C134.8 9.05585 136.328 10.0664 137.108 12.0848V6.88377H141.888ZM136.395 17.1776C136.882 16.6937 137.125 16.0646 137.125 15.2959C137.125 14.5529 136.888 13.9466 136.414 13.4826C135.94 13.0186 135.291 12.7851 134.474 12.7851C133.669 12.7851 133.025 13.0214 132.543 13.4939C132.06 13.9665 131.821 14.5785 131.821 15.3358C131.821 16.093 132.06 16.7108 132.543 17.189C133.025 17.6672 133.66 17.9064 134.455 17.9064C135.26 17.9036 135.907 17.6616 136.395 17.1776Z" fill="#717684"/>
<path d="M67.8183 10.815C69.1342 10.815 70.2014 9.83612 70.2014 8.62866C70.2014 7.4212 69.1342 6.44239 67.8183 6.44239C66.5019 6.44239 65.4351 7.4212 65.4351 8.62866C65.4351 9.83612 66.5019 10.815 67.8183 10.815Z" fill="#717684"/>
<path d="M65.433 12.3211C66.8932 12.9644 68.7051 12.9929 70.1988 12.3211V21.294H65.433V12.3211Z" fill="#717684"/>
</svg>
