<svg width="107" height="34" viewBox="0 0 107 34" fill="none" xmlns="http://www.w3.org/2000/svg">
<path d="M56.3804 8.7291C56.3804 9.9273 55.4152 10.8925 54.217 10.8925C53.0188 10.8925 52.0536 9.9273 52.0536 8.7291C52.0536 7.53091 52.9855 6.56569 54.217 6.56569C55.4485 6.59897 56.3804 7.56419 56.3804 8.7291ZM47.4605 13.0892C47.4605 13.2889 47.4605 13.6217 47.4605 13.6217C47.4605 13.6217 46.4287 12.2904 44.232 12.2904C40.6041 12.2904 37.775 15.0529 37.775 18.8805C37.775 22.6748 40.5708 25.4706 44.232 25.4706C46.462 25.4706 47.4605 24.106 47.4605 24.106V24.6718C47.4605 24.9381 47.6602 25.1378 47.9264 25.1378H50.6224V12.6232C50.6224 12.6232 48.1594 12.6232 47.9264 12.6232C47.6602 12.6232 47.4605 12.8562 47.4605 13.0892ZM47.4605 21.1105C46.9612 21.8427 45.9627 22.4751 44.7645 22.4751C42.6344 22.4751 41.0035 21.1438 41.0035 18.8805C41.0035 16.6172 42.6344 15.2859 44.7645 15.2859C45.9294 15.2859 46.9945 15.9516 47.4605 16.6505V21.1105ZM52.6194 12.6232H55.8146V25.1378H52.6194V12.6232ZM100.348 12.2904C98.1509 12.2904 97.1191 13.6217 97.1191 13.6217V6.59897H93.9239V25.1378C93.9239 25.1378 96.3869 25.1378 96.6199 25.1378C96.8861 25.1378 97.0858 24.9048 97.0858 24.6718V24.106C97.0858 24.106 98.1176 25.4706 100.314 25.4706C103.942 25.4706 106.771 22.6748 106.771 18.8805C106.771 15.0862 103.942 12.2904 100.348 12.2904ZM99.8151 22.4418C98.5836 22.4418 97.6184 21.8094 97.1191 21.0772V16.6172C97.6184 15.9516 98.6834 15.2526 99.8151 15.2526C101.945 15.2526 103.576 16.584 103.576 18.8472C103.576 21.1105 101.945 22.4418 99.8151 22.4418ZM92.2598 17.7156V25.171H89.0646V18.0817C89.0646 16.0181 88.3989 15.1861 86.6016 15.1861C85.6364 15.1861 84.6379 15.6853 84.0055 16.4175V25.1378H80.8103V12.6232H83.3398C83.6061 12.6232 83.8058 12.8562 83.8058 13.0892V13.6217C84.7377 12.6565 85.9692 12.2904 87.2007 12.2904C88.5986 12.2904 89.7635 12.6898 90.6954 13.4886C91.8271 14.4205 92.2598 15.6187 92.2598 17.7156ZM73.0553 12.2904C70.8586 12.2904 69.8268 13.6217 69.8268 13.6217V6.59897H66.6316V25.1378C66.6316 25.1378 69.0946 25.1378 69.3276 25.1378C69.5938 25.1378 69.7935 24.9048 69.7935 24.6718V24.106C69.7935 24.106 70.8253 25.4706 73.022 25.4706C76.6499 25.4706 79.479 22.6748 79.479 18.8805C79.5123 15.0862 76.6832 12.2904 73.0553 12.2904ZM72.5228 22.4418C71.2913 22.4418 70.3261 21.8094 69.8268 21.0772V16.6172C70.3261 15.9516 71.3911 15.2526 72.5228 15.2526C74.6529 15.2526 76.2838 16.584 76.2838 18.8472C76.2838 21.1105 74.6529 22.4418 72.5228 22.4418ZM63.8691 12.2904C64.8343 12.2904 65.3336 12.4568 65.3336 12.4568V15.419C65.3336 15.419 62.6709 14.5204 61.0068 16.4175V25.171H57.8116V12.6232C57.8116 12.6232 60.2745 12.6232 60.5075 12.6232C60.7738 12.6232 60.9735 12.8562 60.9735 13.0892V13.6217C61.5726 12.9228 62.8706 12.2904 63.8691 12.2904ZM30.6857 24.0061C30.5193 23.6067 30.3529 23.174 30.1865 22.8079C29.9202 22.2088 29.6539 21.643 29.4209 21.1105L29.3877 21.0772C27.0911 16.0847 24.6281 11.0257 22.032 6.03316L21.9322 5.83346C21.6659 5.33421 21.3997 4.80168 21.1334 4.26914C20.8006 3.67004 20.4677 3.03766 19.9352 2.43856C18.8701 1.10723 17.3391 0.375 15.7082 0.375C14.0441 0.375 12.5463 1.10723 11.448 2.372C10.9487 2.9711 10.5826 3.60348 10.2498 4.20258C9.9835 4.73511 9.71724 5.26764 9.45097 5.76689L9.35112 5.96659C6.78831 10.9591 4.29206 16.0181 1.99552 21.0106L1.96223 21.0772C1.72925 21.6097 1.46298 22.1756 1.19672 22.7746C1.0303 23.1408 0.863885 23.5402 0.697469 23.9728C0.264786 25.2043 0.131653 26.3692 0.298069 27.5674C0.664185 30.0637 2.32835 32.1605 4.6249 33.0925C5.49026 33.4586 6.38891 33.625 7.32084 33.625C7.58711 33.625 7.91994 33.5917 8.18621 33.5584C9.28455 33.4253 10.4162 33.0592 11.5145 32.4268C12.8791 31.6613 14.1772 30.5629 15.6417 28.9653C17.1061 30.5629 18.4375 31.6613 19.7688 32.4268C20.8671 33.0592 21.9988 33.4253 23.0971 33.5584C23.3634 33.5917 23.6962 33.625 23.9625 33.625C24.8944 33.625 25.8263 33.4586 26.6584 33.0925C28.9883 32.1605 30.6191 30.0304 30.9852 27.5674C31.2515 26.4025 31.1184 25.2376 30.6857 24.0061ZM15.6749 25.7369C13.8776 23.4736 12.7127 21.3435 12.3133 19.5462C12.1469 18.7807 12.1136 18.115 12.2135 17.5159C12.28 16.9834 12.4797 16.5174 12.746 16.118C13.3784 15.2193 14.4435 14.6535 15.6749 14.6535C16.9064 14.6535 18.0048 15.1861 18.6039 16.118C18.8701 16.5174 19.0698 16.9834 19.1364 17.5159C19.2363 18.115 19.203 18.8139 19.0366 19.5462C18.6372 21.3102 17.4722 23.4403 15.6749 25.7369ZM28.955 27.3012C28.722 29.0319 27.5571 30.5297 25.9262 31.1953C25.1274 31.5282 24.262 31.628 23.3967 31.5282C22.5646 31.4283 21.7325 31.162 20.8671 30.6628C19.6689 29.9971 18.4707 28.9653 17.0728 27.4343C19.2695 24.7384 20.6009 22.2754 21.1001 20.0787C21.3331 19.0469 21.3664 18.115 21.2665 17.2496C21.1334 16.4175 20.8339 15.652 20.3679 14.9864C19.3361 13.4886 17.6054 12.6232 15.6749 12.6232C13.7445 12.6232 12.0138 13.5219 10.982 14.9864C10.516 15.652 10.2165 16.4175 10.0834 17.2496C9.95022 18.115 9.9835 19.0802 10.2498 20.0787C10.749 22.2754 12.1136 24.7716 14.277 27.4676C12.9124 28.9986 11.6809 30.0304 10.4828 30.6961C9.61739 31.1953 8.78531 31.4616 7.95322 31.5614C7.05457 31.6613 6.18921 31.5282 5.42369 31.2286C3.79281 30.5629 2.6279 29.0652 2.39492 27.3345C2.29507 26.5024 2.36163 25.6703 2.69447 24.7384C2.79432 24.4055 2.96073 24.0727 3.12715 23.6733C3.36013 23.1408 3.6264 22.5749 3.89266 22.0091L3.92595 21.9426C6.22249 16.9834 8.68546 11.9243 11.2483 6.99837L11.3481 6.79867C11.6144 6.29942 11.8806 5.76689 12.1469 5.26764C12.4132 4.73511 12.7127 4.23586 13.0788 3.80318C13.7778 3.00438 14.7097 2.5717 15.7415 2.5717C16.7733 2.5717 17.7052 3.00438 18.4042 3.80318C18.7703 4.23586 19.0698 4.73511 19.3361 5.26764C19.6024 5.76689 19.8686 6.29942 20.1349 6.79867L20.2348 6.99837C22.7643 11.9576 25.2272 17.0166 27.5238 21.9758V22.0091C27.7901 22.5417 28.023 23.1408 28.2893 23.6733C28.4557 24.0727 28.6221 24.4055 28.722 24.7384C28.9883 25.6037 29.0881 26.4358 28.955 27.3012Z" fill="#717684"/>
</svg>
