<svg width="25" height="20" viewBox="0 0 25 20" fill="none" xmlns="http://www.w3.org/2000/svg">
<path d="M8.90792 9.45008C11.3282 9.45008 13.3085 7.46982 13.3085 5.0495C13.3085 2.62919 11.3282 0.648926 8.90792 0.648926C6.4876 0.648926 4.50734 2.62919 4.50734 5.0495C4.50734 7.46982 6.4876 9.45008 8.90792 9.45008ZM13.8586 8.45995C15.7288 10.0002 18.4792 9.67011 20.0194 7.79987C21.5596 5.92962 21.2295 3.17926 19.3593 1.63906C18.5892 0.978969 17.5991 0.648926 16.6089 0.648926C15.6188 0.648926 14.6287 0.978969 13.8586 1.63906C15.7288 3.17926 16.0589 5.81961 14.5187 7.79987C14.4086 8.01989 14.0786 8.23992 13.8586 8.45995ZM24.75 18.1412C24.0899 14.0707 20.6795 11.1003 16.6089 11.1003C15.6188 11.1003 14.7387 11.2103 13.8586 11.5404C16.7189 12.5305 18.8092 15.0608 19.2493 18.0312C19.3593 18.5813 18.9192 19.2414 18.2591 19.2414H18.1491H23.6499C24.3099 19.2414 24.75 18.8013 24.75 18.1412C24.75 18.2512 24.75 18.1412 24.75 18.1412ZM8.90792 11.1003C4.83738 11.1003 1.31692 14.0707 0.766848 18.1412C0.656834 18.6913 1.09689 19.3514 1.75698 19.3514H1.86699H15.9488C16.6089 19.3514 17.049 18.9113 17.049 18.2512V18.1412C16.4989 14.0707 12.9785 11.1003 8.90792 11.1003Z" fill="#924FE8"/>
</svg>
