<svg width="112" height="38" viewBox="0 0 112 38" fill="none" xmlns="http://www.w3.org/2000/svg">
<path d="M0.0948486 0.831299H24.3197V12.9437H12.2073L0.0948486 0.831299ZM0.0948486 12.9437H12.2073L24.3197 25.0561H0.0948486V12.9437ZM0.0948486 25.0561H12.2073V37.1686L0.0948486 25.0561Z" fill="#717684"/>
<path d="M37.9882 10.3868H47.7803V13.4985H41.6944V17.8226H47.7803V20.8656H41.6944V26.4022H37.9882V10.3868ZM49.7936 15.3743H53.2942V17.6852C53.4771 16.8911 53.8512 16.2815 54.4153 15.8548C54.9939 15.412 55.6362 15.1914 56.3372 15.1914C56.7035 15.1914 57.0088 15.2225 57.2521 15.2829V18.532C56.903 18.4898 56.5516 18.4671 56.1997 18.4632C55.2388 18.4632 54.5151 18.7752 54.0263 19.4009C53.5392 20.011 53.2942 20.926 53.2942 22.1468V26.4022H49.7952V15.3743H49.7936ZM62.7782 26.6998C61.7109 26.6998 60.7799 26.4477 59.9869 25.9445C59.2089 25.4413 58.5904 24.727 58.2025 23.8852C57.7908 23.0013 57.5835 22.001 57.5835 20.8883C57.5835 19.7899 57.7985 18.798 58.2252 17.9141C58.6253 17.0601 59.2604 16.338 60.0556 15.8321C60.863 15.3289 61.7863 15.0767 62.8242 15.0767C63.6017 15.0767 64.2967 15.2452 64.9062 15.5805C65.5158 15.9168 65.9736 16.3746 66.2789 16.9531V15.3743H69.7563V26.4022H66.2789V24.8461C65.9736 25.3953 65.5009 25.8447 64.8603 26.1961C64.2196 26.5358 63.5037 26.7087 62.7782 26.6998ZM63.7852 23.7938C64.6236 23.7938 65.272 23.5195 65.7297 22.9703C66.1875 22.4211 66.4164 21.7267 66.4164 20.8883C66.4164 20.0648 66.1875 19.3782 65.7297 18.829C65.272 18.2798 64.6236 18.0055 63.7852 18.0055C62.9911 18.0055 62.3515 18.2721 61.8633 18.8063C61.3906 19.3405 61.154 20.0338 61.154 20.8883C61.154 21.7428 61.3906 22.4438 61.8633 22.993C62.3515 23.5272 62.9922 23.7938 63.7852 23.7938ZM72.2046 15.3743H75.7053V16.9759C75.9502 16.4106 76.3459 15.9529 76.8945 15.6032C77.4598 15.2535 78.1154 15.0767 78.8624 15.0767C80.6013 15.0767 81.7535 15.755 82.3171 17.1133C82.6274 16.4976 83.1128 15.9883 83.713 15.6492C84.3547 15.2629 85.0918 15.0651 85.8405 15.0767C88.4489 15.0767 89.7529 16.5708 89.7529 19.561V26.4022H86.2295V20.2017C86.2295 19.4552 86.092 18.906 85.8177 18.5547C85.5429 18.2044 85.1311 18.0282 84.5819 18.0282C83.9873 18.0282 83.5296 18.2344 83.2093 18.6461C82.889 19.0429 82.7288 19.7362 82.7288 20.7281V26.4022H79.2054V20.1789C79.2054 19.4319 79.0685 18.89 78.7937 18.5547C78.5354 18.2044 78.1303 18.0282 77.5823 18.0282C76.9716 18.0282 76.5061 18.2344 76.1858 18.6461C75.8654 19.0429 75.7053 19.7362 75.7053 20.7281V26.4022H72.2057V15.3743H72.2046ZM102.903 20.3164C102.903 20.7885 102.872 21.3 102.81 21.8492H94.6667C94.6977 22.5663 94.941 23.1144 95.3987 23.4967C95.8565 23.8775 96.4755 24.0686 97.2518 24.0686C98.3352 24.0686 99.0219 23.74 99.3111 23.0844H102.743C102.575 24.1678 101.98 25.044 100.958 25.7156C99.9517 26.3712 98.716 26.6998 97.2518 26.6998C95.361 26.6998 93.8736 26.1883 92.7903 25.1664C91.7229 24.144 91.1887 22.7187 91.1887 20.8883C91.1887 19.6985 91.4325 18.6688 91.9208 17.7994C92.3924 16.931 93.1194 16.2283 94.0028 15.7861C94.9033 15.3139 95.9479 15.0767 97.1388 15.0767C98.2665 15.0767 99.2651 15.2978 100.135 15.7406C101.019 16.1834 101.698 16.8007 102.171 17.5938C102.659 18.3879 102.903 19.295 102.903 20.3164ZM99.4469 19.6758C99.4319 18.9437 99.2263 18.3862 98.829 18.0055C98.4333 17.6248 97.8603 17.4336 97.1133 17.4336C96.3663 17.4336 95.7717 17.6392 95.3289 18.0515C94.9022 18.4483 94.6811 18.9891 94.665 19.6758H99.4469ZM104.447 15.3743H107.947V17.6852C108.13 16.8911 108.504 16.2815 109.068 15.8548C109.616 15.4236 110.293 15.1898 110.99 15.1914C111.356 15.1914 111.662 15.2225 111.905 15.2829V18.532C111.556 18.4898 111.205 18.4671 110.853 18.4632C109.892 18.4632 109.168 18.7752 108.679 19.4009C108.191 20.011 107.947 20.926 107.947 22.1468V26.4022H104.447V15.3743Z" fill="#717684"/>
</svg>
