<svg width="17" height="17" viewBox="0 0 17 17" fill="none" xmlns="http://www.w3.org/2000/svg">
<path d="M8.89407 12.9312L8.59989 12.7172L8.30571 12.9312L4.18886 15.9268C4.18852 15.9271 4.18819 15.9273 4.18785 15.9276C3.91762 16.1203 3.56888 15.8493 3.66642 15.5502L3.66653 15.5499L5.24062 10.7104L5.35416 10.3613L5.05512 10.1484L0.985937 7.25144L0.985946 7.25142L0.982683 7.24914C0.718229 7.06402 0.843928 6.6349 1.18158 6.6349H6.17177H6.53519L6.64736 6.28923L8.28821 1.23273C8.28825 1.23261 8.28829 1.23249 8.28833 1.23237C8.38964 0.922732 8.82629 0.922542 8.92801 1.23181C8.92811 1.23211 8.92821 1.23242 8.92831 1.23273L10.552 6.28781L10.6634 6.6349H11.028H16.0182C16.3558 6.6349 16.4816 7.06402 16.2171 7.24914L16.2171 7.24913L16.2138 7.25144L12.1447 10.1484L11.8456 10.3613L11.9592 10.7104L13.5332 15.5499L13.5334 15.5502C13.6387 15.8734 13.2659 16.1163 13.0177 15.9318L13.0177 15.9317L13.0135 15.9287L8.89407 12.9312Z" fill="white" stroke="#DEE0E3"/>
</svg>
