<svg width="79" height="30" viewBox="0 0 79 30" fill="none" xmlns="http://www.w3.org/2000/svg">
<path d="M0.431252 0.868652V22.9228L3.25288 22.9337V12.4318H10.0357V9.65311H3.24203V3.63636H12.0868V0.868652H0.431252ZM17.144 5.35387C17.6333 5.35387 18.1026 5.15793 18.4485 4.80917C18.7945 4.4604 18.9889 3.98737 18.9889 3.49414C18.9889 3.00091 18.7945 2.52789 18.4485 2.17912C18.1026 1.83036 17.6333 1.63442 17.144 1.63442C16.6547 1.63442 16.1854 1.83036 15.8394 2.17912C15.4935 2.52789 15.2991 3.00091 15.2991 3.49414C15.2991 3.98737 15.4935 4.4604 15.8394 4.80917C16.1854 5.15793 16.6547 5.35387 17.144 5.35387ZM15.7223 8.12157V22.9337H18.544V8.12157H15.7223Z" fill="#717684"/>
<path fill-rule="evenodd" clip-rule="evenodd" d="M28.9731 7.69492C25.2399 7.69492 22.6353 10.8783 22.6353 14.6634C22.6353 18.4485 25.2399 21.6319 28.9731 21.6319C30.6878 21.6319 32.0986 20.9755 33.1296 19.8816V21.8507C33.1368 22.4391 33.0282 23.023 32.8101 23.5688C32.592 24.1146 32.2688 24.6114 31.8591 25.0305C31.4493 25.4497 30.9613 25.7827 30.4231 26.0106C29.8849 26.2384 29.3072 26.3564 28.7235 26.3578C27.8227 26.3578 26.9328 26.0077 26.2274 25.5045L24.8166 27.9659C25.9075 28.6767 27.1685 29.0776 28.4666 29.1261C29.7647 29.1747 31.0517 28.8692 32.1919 28.2419C33.3321 27.6146 34.2832 26.6887 34.9449 25.5619C35.6065 24.4351 35.9542 23.1492 35.9512 21.8398V8.1325H33.1296V9.45619C32.0986 8.36223 30.6878 7.70586 28.9731 7.70586V7.69492ZM25.4461 14.6634C25.4461 12.3114 27.2259 10.4626 29.2878 10.4626C31.3498 10.4626 33.1187 12.3223 33.1187 14.6634C33.1187 17.0154 31.3389 18.8533 29.2878 18.8533C27.2259 18.8533 25.4461 17.0154 25.4461 14.6634Z" fill="#717684"/>
<path d="M46.0874 10.4627C45.2804 10.4771 44.5114 10.8111 43.9469 11.3925C43.3823 11.9739 43.0674 12.7559 43.0704 13.5695V22.9338H40.2488V8.12163H43.0704V9.47813C43.4926 8.91414 44.0409 8.45865 44.6708 8.14878C45.3007 7.83891 45.9943 7.68342 46.6951 7.69499C48.6703 7.69499 50.1896 8.67955 51.0578 10.1892C51.5421 9.4324 52.2051 8.80844 52.9872 8.37317C53.7694 7.9379 54.6464 7.70488 55.5398 7.69499C58.7413 7.69499 60.749 10.2986 60.749 13.5258V22.9338H57.9491V13.5586C57.9521 12.745 57.6372 11.9629 57.0726 11.3815C56.508 10.8001 55.7391 10.4661 54.9321 10.4518C54.1251 10.4661 53.3562 10.8001 52.7916 11.3815C52.227 11.9629 51.9121 12.745 51.9151 13.5586V22.9228H49.0935V13.5586C49.0965 12.7469 48.7832 11.9664 48.2209 11.3853C47.6586 10.8042 46.8925 10.469 46.0874 10.4518V10.4627Z" fill="#717684"/>
<path fill-rule="evenodd" clip-rule="evenodd" d="M75.758 9.80629C75.1172 9.13281 74.3469 8.5982 73.4942 8.23516C72.6414 7.87213 71.7241 7.68831 70.7984 7.69496C66.6094 7.69496 63.6358 11.2613 63.6358 15.5277C63.6358 19.7941 66.6094 23.3604 70.7984 23.3604C71.7238 23.3651 72.6405 23.1804 73.493 22.8175C74.3455 22.4546 75.1161 21.921 75.758 21.2491V22.9338H78.5687V8.1216H75.7471V9.80629H75.758ZM66.4466 15.5277C66.4466 12.7053 68.5954 10.4627 71.1023 10.4627C73.5983 10.4627 75.758 12.7053 75.758 15.5277C75.758 18.3501 73.6092 20.5817 71.1023 20.5817C68.6062 20.5817 66.4466 18.3501 66.4466 15.5277Z" fill="#717684"/>
</svg>
