<svg width="400" height="814" viewBox="0 0 400 814" fill="none" xmlns="http://www.w3.org/2000/svg">
<path fill-rule="evenodd" clip-rule="evenodd" d="M2.34839 107.595C2.34839 69.9332 2.34839 51.1023 9.68572 36.7174C16.1398 24.0641 26.4383 13.7767 39.1052 7.32947C53.5055 0 72.3566 0 110.059 0H289.941C327.643 0 346.495 0 360.895 7.32947C373.562 13.7767 383.86 24.0641 390.314 36.7174C397.652 51.1023 397.652 69.9332 397.652 107.595L397.652 258.04H398.434C399.299 258.04 400 258.741 400 259.604V353.437C400 354.301 399.299 355.001 398.434 355.001H397.652L397.652 706.405C397.652 744.067 397.652 762.898 390.314 777.283C383.86 789.936 373.562 800.223 360.895 806.671C346.495 814 327.643 814 289.941 814H110.059C72.3566 814 53.5055 814 39.1052 806.671C26.4383 800.223 16.1398 789.936 9.68572 777.283C2.34839 762.898 2.34839 744.067 2.34839 706.405C2.34839 472.555 2.34839 341.445 2.34839 107.595ZM1.17417 156.388C0.525693 156.388 0 156.913 0 157.561V186.493C0 187.14 0.525694 187.666 1.17417 187.666H2.34834V172.027V156.388H1.17417ZM0 216.206C0 215.559 0.525693 215.034 1.17417 215.034H2.34834V277.589H1.17417C0.525694 277.589 0 277.064 0 276.416V216.206ZM1.17417 293.228C0.525693 293.228 0 293.753 0 294.401V354.61C0 355.258 0.525694 355.783 1.17417 355.783H2.34834V293.228H1.17417Z" fill="#717684"/>
</svg>
