<svg width="20" height="20" viewBox="0 0 20 20" fill="none" xmlns="http://www.w3.org/2000/svg">
<path d="M15.4475 16.3059C13.9353 17.6161 12.0008 18.3361 9.99996 18.3334C5.39746 18.3334 1.66663 14.6025 1.66663 10C1.66663 5.39752 5.39746 1.66669 9.99996 1.66669C14.6025 1.66669 18.3333 5.39752 18.3333 10C18.3333 11.78 17.775 13.43 16.825 14.7834L14.1666 10H16.6666C16.6665 8.46353 16.1356 6.97424 15.1639 5.7841C14.1921 4.59395 12.839 3.77601 11.3336 3.46865C9.82813 3.16129 8.26274 3.38337 6.90219 4.09733C5.54165 4.81128 4.46948 5.97328 3.86706 7.38676C3.26465 8.80023 3.16896 10.3784 3.5962 11.8543C4.02344 13.3302 4.94737 14.6132 6.21169 15.4863C7.47602 16.3594 9.00312 16.769 10.5347 16.6458C12.0662 16.5225 13.5082 15.874 14.6166 14.81L15.4475 16.3059Z" fill="#0F1324" fill-opacity="0.6"/>
</svg>
