<svg width="14" height="14" viewBox="0 0 14 14" fill="none" xmlns="http://www.w3.org/2000/svg">
<path d="M10.7122 9.06266L9.88741 8.23666L10.7122 7.41183C10.985 7.14142 11.2017 6.8198 11.3499 6.46542C11.498 6.11105 11.5747 5.7309 11.5756 5.34681C11.5764 4.96271 11.5014 4.58223 11.3548 4.22721C11.2082 3.87219 10.9929 3.54962 10.7213 3.27802C10.4497 3.00643 10.1271 2.79115 9.7721 2.64455C9.41708 2.49795 9.0366 2.42292 8.65251 2.42376C8.26841 2.4246 7.88827 2.5013 7.53389 2.64945C7.17952 2.7976 6.85789 3.01429 6.58749 3.28708L5.76265 4.11249L4.93724 3.28766L5.76324 2.46283C6.52905 1.69701 7.56772 1.26678 8.65074 1.26678C9.73376 1.26678 10.7724 1.69701 11.5382 2.46283C12.3041 3.22864 12.7343 4.2673 12.7343 5.35033C12.7343 6.43335 12.3041 7.47201 11.5382 8.23783L10.7128 9.06266H10.7122ZM9.06257 10.7123L8.23715 11.5372C7.47134 12.303 6.43268 12.7332 5.34966 12.7332C4.26663 12.7332 3.22797 12.303 2.46216 11.5372C1.69634 10.7713 1.26611 9.73268 1.26611 8.64966C1.26611 7.56664 1.69634 6.52797 2.46216 5.76216L3.28757 4.93733L4.1124 5.76333L3.28757 6.58816C3.01479 6.85856 2.7981 7.18019 2.64995 7.53456C2.50179 7.88894 2.4251 8.26908 2.42425 8.65318C2.42341 9.03728 2.49845 9.41776 2.64505 9.77278C2.79164 10.1278 3.00692 10.4504 3.27852 10.722C3.55012 10.9936 3.87269 11.2088 4.22771 11.3554C4.58273 11.502 4.9632 11.5771 5.3473 11.5762C5.7314 11.5754 6.11154 11.4987 6.46592 11.3505C6.82029 11.2024 7.14192 10.9857 7.41232 10.7129L8.23715 9.88808L9.06257 10.7129V10.7123ZM8.64957 4.52491L9.47499 5.35033L5.35024 9.47449L4.52482 8.64966L8.64957 4.52549V4.52491Z" fill="#0D1126" fill-opacity="0.4"/>
</svg>
