<svg width="20" height="20" viewBox="0 0 20 20" fill="none" xmlns="http://www.w3.org/2000/svg">
<path d="M1.66666 7.49501C1.66622 6.83851 1.79528 6.18837 2.04646 5.58183C2.29764 4.97528 2.666 4.42424 3.13045 3.96026C3.59489 3.49628 4.1463 3.12847 4.7531 2.8779C5.3599 2.62733 6.01016 2.49891 6.66666 2.50001H13.3333C16.0942 2.50001 18.3333 4.74584 18.3333 7.49501V17.5H6.66666C3.90582 17.5 1.66666 15.2542 1.66666 12.505V7.49501ZM16.6667 15.8333V7.49501C16.6645 6.61209 16.3124 5.76604 15.6876 5.14219C15.0628 4.51834 14.2162 4.16755 13.3333 4.16667H6.66666C6.22903 4.16558 5.79549 4.25088 5.3909 4.4177C4.98632 4.58451 4.61864 4.82955 4.30896 5.13877C3.99928 5.44799 3.75368 5.8153 3.58626 6.21963C3.41884 6.62397 3.33288 7.05738 3.33332 7.49501V12.505C3.33553 13.3879 3.68759 14.234 4.31237 14.8578C4.93716 15.4817 5.78374 15.8325 6.66666 15.8333H16.6667ZM11.6667 9.16667H13.3333V10.8333H11.6667V9.16667ZM6.66666 9.16667H8.33332V10.8333H6.66666V9.16667Z" fill="#0F1324" fill-opacity="0.6"/>
</svg>
