<svg width="21" height="20" viewBox="0 0 21 20" fill="none" xmlns="http://www.w3.org/2000/svg">
<path d="M5.22583 3.54783L11.6783 10.0003L10.5 11.1787L5.23333 5.912C4.25182 7.1778 3.75886 8.75467 3.84463 10.3541C3.9304 11.9536 4.58917 13.4687 5.70042 14.6223C6.81167 15.7758 8.30111 16.4908 9.89624 16.6362C11.4914 16.7817 13.0856 16.348 14.3872 15.4145C15.6888 14.481 16.6107 13.11 16.9844 11.5525C17.3581 9.99494 17.1585 8.35491 16.4222 6.93244C15.6859 5.50996 14.462 4.40015 12.9745 3.80603C11.487 3.21191 9.83535 3.17321 8.32166 3.697L7.04166 2.417C8.12715 1.92138 9.30671 1.66557 10.5 1.667C15.1025 1.667 18.8333 5.39783 18.8333 10.0003C18.8333 14.6028 15.1025 18.3337 10.5 18.3337C5.89749 18.3337 2.16666 14.6028 2.16666 10.0003C2.1654 8.76513 2.4393 7.54515 2.96846 6.42904C3.49762 5.31292 4.26875 4.32868 5.22583 3.54783V3.54783Z" fill="white"/>
</svg>
