<svg width="16" height="16" viewBox="0 0 16 16" fill="none" xmlns="http://www.w3.org/2000/svg">
<path d="M3.78065 2.83805L8.94265 8.00005L7.99998 8.94271L3.78665 4.72938C3.00144 5.74202 2.60708 7.00352 2.67569 8.28308C2.74431 9.56265 3.27133 10.7747 4.16033 11.6976C5.04932 12.6205 6.24087 13.1924 7.51698 13.3088C8.79309 13.4252 10.0684 13.0782 11.1097 12.3314C12.151 11.5846 12.8886 10.4878 13.1875 9.24177C13.4865 7.99573 13.3268 6.68371 12.7378 5.54573C12.1487 4.40775 11.1696 3.5199 9.9796 3.04461C8.78961 2.56931 7.46827 2.53835 6.25732 2.95738L5.23332 1.93338C6.1017 1.53688 7.04536 1.33223 7.99998 1.33338C11.682 1.33338 14.6666 4.31805 14.6666 8.00005C14.6666 11.682 11.682 14.6667 7.99998 14.6667C4.31798 14.6667 1.33332 11.682 1.33332 8.00005C1.33231 7.01188 1.55143 6.0359 1.97476 5.14301C2.39808 4.25011 3.01499 3.46273 3.78065 2.83805V2.83805Z" fill="#0F1324" fill-opacity="0.6"/>
</svg>
