<svg width="20" height="20" viewBox="0 0 20 20" fill="none" xmlns="http://www.w3.org/2000/svg">
<path d="M5.41666 9.58337C4.9242 9.58337 4.43656 9.48638 3.98159 9.29792C3.52662 9.10947 3.11323 8.83324 2.76501 8.48502C2.41679 8.1368 2.14056 7.72341 1.95211 7.26844C1.76365 6.81347 1.66666 6.32583 1.66666 5.83337C1.66666 5.34092 1.76365 4.85328 1.95211 4.39831C2.14056 3.94334 2.41679 3.52994 2.76501 3.18172C3.11323 2.8335 3.52662 2.55728 3.98159 2.36883C4.43656 2.18037 4.9242 2.08337 5.41666 2.08337C6.41122 2.08337 7.36505 2.47846 8.06831 3.18172C8.77157 3.88498 9.16666 4.83881 9.16666 5.83337C9.16666 6.82794 8.77157 7.78176 8.06831 8.48502C7.36505 9.18829 6.41122 9.58337 5.41666 9.58337V9.58337ZM5.83332 17.9167C4.83876 17.9167 3.88493 17.5216 3.18167 16.8184C2.47841 16.1151 2.08332 15.1613 2.08332 14.1667C2.08332 13.1721 2.47841 12.2183 3.18167 11.5151C3.88493 10.8118 4.83876 10.4167 5.83332 10.4167C6.82788 10.4167 7.78171 10.8118 8.48497 11.5151C9.18823 12.2183 9.58332 13.1721 9.58332 14.1667C9.58332 15.1613 9.18823 16.1151 8.48497 16.8184C7.78171 17.5216 6.82788 17.9167 5.83332 17.9167V17.9167ZM14.1667 9.58337C13.6742 9.58337 13.1866 9.48638 12.7316 9.29792C12.2766 9.10947 11.8632 8.83324 11.515 8.48502C11.1668 8.1368 10.8906 7.72341 10.7021 7.26844C10.5137 6.81347 10.4167 6.32583 10.4167 5.83337C10.4167 5.34092 10.5137 4.85328 10.7021 4.39831C10.8906 3.94334 11.1668 3.52994 11.515 3.18172C11.8632 2.8335 12.2766 2.55728 12.7316 2.36883C13.1866 2.18037 13.6742 2.08337 14.1667 2.08337C15.1612 2.08337 16.115 2.47846 16.8183 3.18172C17.5216 3.88498 17.9167 4.83881 17.9167 5.83337C17.9167 6.82794 17.5216 7.78176 16.8183 8.48502C16.115 9.18829 15.1612 9.58337 14.1667 9.58337V9.58337ZM14.1667 17.9167C13.1721 17.9167 12.2183 17.5216 11.515 16.8184C10.8117 16.1151 10.4167 15.1613 10.4167 14.1667C10.4167 13.1721 10.8117 12.2183 11.515 11.5151C12.2183 10.8118 13.1721 10.4167 14.1667 10.4167C15.1612 10.4167 16.115 10.8118 16.8183 11.5151C17.5216 12.2183 17.9167 13.1721 17.9167 14.1667C17.9167 15.1613 17.5216 16.1151 16.8183 16.8184C16.115 17.5216 15.1612 17.9167 14.1667 17.9167ZM5.41666 7.91671C5.96919 7.91671 6.49909 7.69721 6.8898 7.30651C7.2805 6.91581 7.49999 6.38591 7.49999 5.83337C7.49999 5.28084 7.2805 4.75094 6.8898 4.36023C6.49909 3.96953 5.96919 3.75004 5.41666 3.75004C4.86412 3.75004 4.33422 3.96953 3.94352 4.36023C3.55282 4.75094 3.33332 5.28084 3.33332 5.83337C3.33332 6.38591 3.55282 6.91581 3.94352 7.30651C4.33422 7.69721 4.86412 7.91671 5.41666 7.91671V7.91671ZM5.83332 16.25C6.38586 16.25 6.91576 16.0305 7.30646 15.6398C7.69716 15.2491 7.91666 14.7192 7.91666 14.1667C7.91666 13.6142 7.69716 13.0843 7.30646 12.6936C6.91576 12.3029 6.38586 12.0834 5.83332 12.0834C5.28079 12.0834 4.75088 12.3029 4.36018 12.6936C3.96948 13.0843 3.74999 13.6142 3.74999 14.1667C3.74999 14.7192 3.96948 15.2491 4.36018 15.6398C4.75088 16.0305 5.28079 16.25 5.83332 16.25ZM14.1667 7.91671C14.7192 7.91671 15.2491 7.69721 15.6398 7.30651C16.0305 6.91581 16.25 6.38591 16.25 5.83337C16.25 5.28084 16.0305 4.75094 15.6398 4.36023C15.2491 3.96953 14.7192 3.75004 14.1667 3.75004C13.6141 3.75004 13.0842 3.96953 12.6935 4.36023C12.3028 4.75094 12.0833 5.28084 12.0833 5.83337C12.0833 6.38591 12.3028 6.91581 12.6935 7.30651C13.0842 7.69721 13.6141 7.91671 14.1667 7.91671ZM14.1667 16.25C14.7192 16.25 15.2491 16.0305 15.6398 15.6398C16.0305 15.2491 16.25 14.7192 16.25 14.1667C16.25 13.6142 16.0305 13.0843 15.6398 12.6936C15.2491 12.3029 14.7192 12.0834 14.1667 12.0834C13.6141 12.0834 13.0842 12.3029 12.6935 12.6936C12.3028 13.0843 12.0833 13.6142 12.0833 14.1667C12.0833 14.7192 12.3028 15.2491 12.6935 15.6398C13.0842 16.0305 13.6141 16.25 14.1667 16.25Z" fill="#0F1324" fill-opacity="0.6"/>
</svg>
