<svg width="21" height="20" viewBox="0 0 21 20" fill="none" xmlns="http://www.w3.org/2000/svg">
<path d="M10.1867 6.01837C9.45666 6.01837 8.32666 5.18837 7.13666 5.21837C5.56666 5.23837 4.12666 6.12837 3.31666 7.53837C1.68666 10.3684 2.89666 14.5484 4.48666 16.8484C5.26666 17.9684 6.18666 19.2284 7.40666 19.1884C8.57666 19.1384 9.01666 18.4284 10.4367 18.4284C11.8467 18.4284 12.2467 19.1884 13.4867 19.1584C14.7467 19.1384 15.5467 18.0184 16.3167 16.8884C17.2067 15.5884 17.5767 14.3284 17.5967 14.2584C17.5667 14.2484 15.1467 13.3184 15.1167 10.5184C15.0967 8.17837 17.0267 7.05837 17.1167 7.00837C16.0167 5.39837 14.3267 5.21837 13.7367 5.17837C12.1967 5.05837 10.9067 6.01837 10.1867 6.01837V6.01837ZM12.7867 3.65837C13.4367 2.87837 13.8667 1.78837 13.7467 0.708374C12.8167 0.748374 11.6967 1.32837 11.0267 2.10837C10.4267 2.79837 9.90666 3.90837 10.0467 4.96837C11.0767 5.04837 12.1367 4.43837 12.7867 3.65837V3.65837Z" fill="white"/>
</svg>
