<svg width="20" height="20" viewBox="0 0 20 20" fill="none" xmlns="http://www.w3.org/2000/svg">
<path d="M3.33334 15H5.00001V16.6666H15V3.33329H5.00001V4.99996H3.33334V2.49996C3.33334 2.27895 3.42114 2.06698 3.57742 1.9107C3.7337 1.75442 3.94566 1.66663 4.16668 1.66663H15.8333C16.0544 1.66663 16.2663 1.75442 16.4226 1.9107C16.5789 2.06698 16.6667 2.27895 16.6667 2.49996V17.5C16.6667 17.721 16.5789 17.9329 16.4226 18.0892C16.2663 18.2455 16.0544 18.3333 15.8333 18.3333H4.16668C3.94566 18.3333 3.7337 18.2455 3.57742 18.0892C3.42114 17.9329 3.33334 17.721 3.33334 17.5V15ZM5.00001 9.16663H10.8333V10.8333H5.00001V13.3333L0.833344 9.99996L5.00001 6.66663V9.16663Z" fill="#0F1324" fill-opacity="0.6"/>
</svg>
