<svg width="21" height="20" viewBox="0 0 21 20" fill="none" xmlns="http://www.w3.org/2000/svg">
<path d="M10.1867 6.0185C9.45667 6.0185 8.32667 5.1885 7.13667 5.2185C5.56667 5.2385 4.12667 6.1285 3.31667 7.5385C1.68667 10.3685 2.89667 14.5485 4.48667 16.8485C5.26667 17.9685 6.18667 19.2285 7.40667 19.1885C8.57667 19.1385 9.01667 18.4285 10.4367 18.4285C11.8467 18.4285 12.2467 19.1885 13.4867 19.1585C14.7467 19.1385 15.5467 18.0185 16.3167 16.8885C17.2067 15.5885 17.5767 14.3285 17.5967 14.2585C17.5667 14.2485 15.1467 13.3185 15.1167 10.5185C15.0967 8.1785 17.0267 7.0585 17.1167 7.0085C16.0167 5.3985 14.3267 5.2185 13.7367 5.1785C12.1967 5.0585 10.9067 6.0185 10.1867 6.0185V6.0185ZM12.7867 3.6585C13.4367 2.8785 13.8667 1.7885 13.7467 0.708496C12.8167 0.748496 11.6967 1.3285 11.0267 2.1085C10.4267 2.7985 9.90667 3.9085 10.0467 4.9685C11.0767 5.0485 12.1367 4.4385 12.7867 3.6585V3.6585Z" fill="white"/>
</svg>
