<svg width="20" height="20" viewBox="0 0 20 20" fill="none" xmlns="http://www.w3.org/2000/svg">
<path d="M10 14.1666C13.0517 14.1666 15.7208 15.4791 17.1725 17.4375L15.6375 18.1633C14.4558 16.7633 12.3725 15.8333 10 15.8333C7.62751 15.8333 5.54417 16.7633 4.36251 18.1633L2.82834 17.4366C4.28001 15.4783 6.94834 14.1666 10 14.1666ZM10 1.66663C11.1051 1.66663 12.1649 2.10561 12.9463 2.88701C13.7277 3.66842 14.1667 4.72822 14.1667 5.83329V8.33329C14.1666 9.40701 13.7521 10.4393 13.0095 11.2148C12.2669 11.9903 11.2535 12.4492 10.1808 12.4958L10 12.5C8.89494 12.5 7.83513 12.061 7.05373 11.2796C6.27233 10.4982 5.83334 9.43836 5.83334 8.33329V5.83329C5.8334 4.75957 6.24796 3.72733 6.99055 2.95181C7.73315 2.1763 8.74646 1.71739 9.81917 1.67079L10 1.66663ZM10 3.33329C9.36233 3.33326 8.74874 3.5769 8.28479 4.01436C7.82083 4.45183 7.54158 5.05005 7.50417 5.68663L7.50001 5.83329V8.33329C7.49938 8.98405 7.75252 9.6094 8.20565 10.0765C8.65877 10.5435 9.27617 10.8155 9.92664 10.8346C10.5771 10.8537 11.2094 10.6184 11.6891 10.1787C12.1689 9.73906 12.4583 9.12963 12.4958 8.47996L12.5 8.33329V5.83329C12.5 5.17025 12.2366 4.53437 11.7678 4.06553C11.2989 3.59669 10.663 3.33329 10 3.33329V3.33329Z" fill="#0D1126" fill-opacity="0.4"/>
</svg>
