<svg width="16" height="16" viewBox="0 0 16 16" fill="none" xmlns="http://www.w3.org/2000/svg">
<path d="M9.57867 2.93201L7.256 6.95534L8.41067 7.62201L10.7333 3.59867C13.5133 5.44667 14.9373 8.31867 13.7733 10.3333C12.5333 12.4813 8.98067 12.57 5.83333 10.7533C2.686 8.93467 0.986667 5.81401 2.22667 3.66667C3.39 1.65134 6.58867 1.44867 9.57867 2.93201ZM10.5893 1.18201L11.744 1.84867L10.744 3.58067L9.58933 2.91401L10.5893 1.18201ZM4.488 13.3333H11.3333V14.6667H3.34467C3.22567 14.669 3.10822 14.6393 3.00465 14.5807C2.90108 14.522 2.81519 14.4366 2.756 14.3333C2.69781 14.2319 2.6672 14.117 2.6672 14C2.6672 13.883 2.69781 13.7681 2.756 13.6667L4.256 11.0687L5.41067 11.7353L4.488 13.3333Z" fill="#0F1324" fill-opacity="0.6"/>
</svg>
