<svg width="94" height="32" viewBox="0 0 94 32" fill="none" xmlns="http://www.w3.org/2000/svg">
<path fill-rule="evenodd" clip-rule="evenodd" d="M12.3869 11.5473V14.808L20.1799 14.8045C19.9408 16.6029 19.3344 17.9196 18.4127 18.8413C17.2761 19.9779 15.502 21.2288 12.3869 21.2288C7.58424 21.2288 3.82807 17.3583 3.82807 12.5556C3.82807 7.75301 7.58424 3.88249 12.3869 3.88249C14.9788 3.88249 16.8707 4.90123 18.2672 6.21104L20.568 3.91021C18.6206 2.04945 16.0287 0.621826 12.3903 0.621826C5.81357 0.621826 0.283264 5.97888 0.283264 12.5556C0.283264 19.1324 5.81357 24.4895 12.3903 24.4895C15.9386 24.4895 18.6171 23.3252 20.7135 21.1422C22.8688 18.9869 23.5376 15.9618 23.5376 13.5155C23.5376 12.7878 23.4821 12.1156 23.3747 11.5473H12.3869ZM78.1234 24.0219V1.49874H74.8315V24.0219H78.1234ZM32.5572 24.493C36.8054 24.493 40.2671 21.2324 40.2671 16.8074C40.2671 12.3513 36.8054 9.12184 32.5572 9.12184C28.309 9.12184 24.8474 12.3513 24.8474 16.8074C24.8474 21.2324 28.309 24.493 32.5572 24.493ZM32.5572 12.1503C34.8858 12.1503 36.8921 14.0423 36.8921 16.8074C36.8921 19.5414 34.8858 21.4645 32.5572 21.4645C30.2287 21.4645 28.2224 19.5449 28.2224 16.8074C28.2224 14.0423 30.2287 12.1503 32.5572 12.1503ZM49.1899 24.493C53.4381 24.493 56.8998 21.2324 56.8998 16.8074C56.8998 12.3513 53.4381 9.12184 49.1899 9.12184C44.9417 9.12184 41.4801 12.3548 41.4801 16.8074C41.4801 21.2324 44.9417 24.493 49.1899 24.493ZM49.1899 12.1503C51.5185 12.1503 53.5248 14.0423 53.5248 16.8074C53.5248 19.5414 51.5185 21.4645 49.1899 21.4645C46.8614 21.4645 44.8551 19.5449 44.8551 16.8074C44.8551 14.0423 46.8614 12.1503 49.1899 12.1503ZM72.8395 9.58963V23.3842C72.8395 29.0601 69.4922 31.3782 65.5351 31.3782C61.8101 31.3782 59.5681 28.8868 58.7227 26.8493L61.6611 25.6261C62.1843 26.877 63.4664 28.3532 65.5316 28.3532C68.0646 28.3532 69.6343 26.7904 69.6343 23.8485V22.7432H69.5165C68.7611 23.6753 67.3057 24.4896 65.4692 24.4896C61.6264 24.4896 58.1059 21.1423 58.1059 16.8352C58.1059 12.4969 61.6264 9.12184 65.4692 9.12184C67.3023 9.12184 68.7576 9.93614 69.5165 10.8405H69.6343V9.58963H72.8395ZM69.8734 16.8352C69.8734 14.1289 68.0681 12.1503 65.7707 12.1503C63.4421 12.1503 61.4913 14.1289 61.4913 16.8352C61.4913 19.5137 63.4421 21.4646 65.7707 21.4646C68.0681 21.4646 69.8734 19.5137 69.8734 16.8352ZM90.9516 19.337L93.5712 21.0834C92.7257 22.3343 90.6882 24.4896 87.1677 24.4896C82.8017 24.4896 79.541 21.1146 79.541 16.804C79.541 12.2335 82.8294 9.11839 86.79 9.11839C90.7783 9.11839 92.7292 12.2924 93.3668 14.0077L93.7167 14.8809L83.4427 19.136C84.2293 20.678 85.4525 21.4646 87.1677 21.4646C88.8864 21.4646 90.0784 20.6191 90.9516 19.337ZM82.8883 16.5718L89.7561 13.7201C89.3784 12.7602 88.2419 12.0915 86.9043 12.0915C85.1891 12.0915 82.8017 13.6057 82.8883 16.5718Z" fill="#717684"/>
</svg>
